<svg xmlns="http://www.w3.org/2000/svg" viewBox="0 0 100 100" preserveAspectRatio="xMidYMid" width="198" height="198" style="shape-rendering: auto; display: block; background: transparent;" xmlns:xlink="http://www.w3.org/1999/xlink"><g><g transform="rotate(0 50 50)">
  <rect fill="#2d2627" height="10" width="4" ry="2.4" rx="2" y="28" x="48">
    <animate repeatCount="indefinite" begin="-1.4914772727272727s" dur="1.5625s" keyTimes="0;1" values="1;0" attributeName="opacity"></animate>
  </rect>
</g><g transform="rotate(16.363636363636363 50 50)">
  <rect fill="#2d2627" height="10" width="4" ry="2.4" rx="2" y="28" x="48">
    <animate repeatCount="indefinite" begin="-1.4204545454545454s" dur="1.5625s" keyTimes="0;1" values="1;0" attributeName="opacity"></animate>
  </rect>
</g><g transform="rotate(32.72727272727273 50 50)">
  <rect fill="#2d2627" height="10" width="4" ry="2.4" rx="2" y="28" x="48">
    <animate repeatCount="indefinite" begin="-1.3494318181818181s" dur="1.5625s" keyTimes="0;1" values="1;0" attributeName="opacity"></animate>
  </rect>
</g><g transform="rotate(49.09090909090909 50 50)">
  <rect fill="#2d2627" height="10" width="4" ry="2.4" rx="2" y="28" x="48">
    <animate repeatCount="indefinite" begin="-1.2784090909090908s" dur="1.5625s" keyTimes="0;1" values="1;0" attributeName="opacity"></animate>
  </rect>
</g><g transform="rotate(65.45454545454545 50 50)">
  <rect fill="#2d2627" height="10" width="4" ry="2.4" rx="2" y="28" x="48">
    <animate repeatCount="indefinite" begin="-1.2073863636363635s" dur="1.5625s" keyTimes="0;1" values="1;0" attributeName="opacity"></animate>
  </rect>
</g><g transform="rotate(81.81818181818181 50 50)">
  <rect fill="#2d2627" height="10" width="4" ry="2.4" rx="2" y="28" x="48">
    <animate repeatCount="indefinite" begin="-1.1363636363636365s" dur="1.5625s" keyTimes="0;1" values="1;0" attributeName="opacity"></animate>
  </rect>
</g><g transform="rotate(98.18181818181819 50 50)">
  <rect fill="#2d2627" height="10" width="4" ry="2.4" rx="2" y="28" x="48">
    <animate repeatCount="indefinite" begin="-1.0653409090909092s" dur="1.5625s" keyTimes="0;1" values="1;0" attributeName="opacity"></animate>
  </rect>
</g><g transform="rotate(114.54545454545455 50 50)">
  <rect fill="#2d2627" height="10" width="4" ry="2.4" rx="2" y="28" x="48">
    <animate repeatCount="indefinite" begin="-0.9943181818181818s" dur="1.5625s" keyTimes="0;1" values="1;0" attributeName="opacity"></animate>
  </rect>
</g><g transform="rotate(130.9090909090909 50 50)">
  <rect fill="#2d2627" height="10" width="4" ry="2.4" rx="2" y="28" x="48">
    <animate repeatCount="indefinite" begin="-0.9232954545454546s" dur="1.5625s" keyTimes="0;1" values="1;0" attributeName="opacity"></animate>
  </rect>
</g><g transform="rotate(147.27272727272728 50 50)">
  <rect fill="#2d2627" height="10" width="4" ry="2.4" rx="2" y="28" x="48">
    <animate repeatCount="indefinite" begin="-0.8522727272727273s" dur="1.5625s" keyTimes="0;1" values="1;0" attributeName="opacity"></animate>
  </rect>
</g><g transform="rotate(163.63636363636363 50 50)">
  <rect fill="#2d2627" height="10" width="4" ry="2.4" rx="2" y="28" x="48">
    <animate repeatCount="indefinite" begin="-0.78125s" dur="1.5625s" keyTimes="0;1" values="1;0" attributeName="opacity"></animate>
  </rect>
</g><g transform="rotate(180 50 50)">
  <rect fill="#2d2627" height="10" width="4" ry="2.4" rx="2" y="28" x="48">
    <animate repeatCount="indefinite" begin="-0.7102272727272727s" dur="1.5625s" keyTimes="0;1" values="1;0" attributeName="opacity"></animate>
  </rect>
</g><g transform="rotate(196.36363636363637 50 50)">
  <rect fill="#2d2627" height="10" width="4" ry="2.4" rx="2" y="28" x="48">
    <animate repeatCount="indefinite" begin="-0.6392045454545454s" dur="1.5625s" keyTimes="0;1" values="1;0" attributeName="opacity"></animate>
  </rect>
</g><g transform="rotate(212.72727272727272 50 50)">
  <rect fill="#2d2627" height="10" width="4" ry="2.4" rx="2" y="28" x="48">
    <animate repeatCount="indefinite" begin="-0.5681818181818182s" dur="1.5625s" keyTimes="0;1" values="1;0" attributeName="opacity"></animate>
  </rect>
</g><g transform="rotate(229.0909090909091 50 50)">
  <rect fill="#2d2627" height="10" width="4" ry="2.4" rx="2" y="28" x="48">
    <animate repeatCount="indefinite" begin="-0.4971590909090909s" dur="1.5625s" keyTimes="0;1" values="1;0" attributeName="opacity"></animate>
  </rect>
</g><g transform="rotate(245.45454545454547 50 50)">
  <rect fill="#2d2627" height="10" width="4" ry="2.4" rx="2" y="28" x="48">
    <animate repeatCount="indefinite" begin="-0.42613636363636365s" dur="1.5625s" keyTimes="0;1" values="1;0" attributeName="opacity"></animate>
  </rect>
</g><g transform="rotate(261.8181818181818 50 50)">
  <rect fill="#2d2627" height="10" width="4" ry="2.4" rx="2" y="28" x="48">
    <animate repeatCount="indefinite" begin="-0.35511363636363635s" dur="1.5625s" keyTimes="0;1" values="1;0" attributeName="opacity"></animate>
  </rect>
</g><g transform="rotate(278.1818181818182 50 50)">
  <rect fill="#2d2627" height="10" width="4" ry="2.4" rx="2" y="28" x="48">
    <animate repeatCount="indefinite" begin="-0.2840909090909091s" dur="1.5625s" keyTimes="0;1" values="1;0" attributeName="opacity"></animate>
  </rect>
</g><g transform="rotate(294.54545454545456 50 50)">
  <rect fill="#2d2627" height="10" width="4" ry="2.4" rx="2" y="28" x="48">
    <animate repeatCount="indefinite" begin="-0.21306818181818182s" dur="1.5625s" keyTimes="0;1" values="1;0" attributeName="opacity"></animate>
  </rect>
</g><g transform="rotate(310.90909090909093 50 50)">
  <rect fill="#2d2627" height="10" width="4" ry="2.4" rx="2" y="28" x="48">
    <animate repeatCount="indefinite" begin="-0.14204545454545456s" dur="1.5625s" keyTimes="0;1" values="1;0" attributeName="opacity"></animate>
  </rect>
</g><g transform="rotate(327.27272727272725 50 50)">
  <rect fill="#2d2627" height="10" width="4" ry="2.4" rx="2" y="28" x="48">
    <animate repeatCount="indefinite" begin="-0.07102272727272728s" dur="1.5625s" keyTimes="0;1" values="1;0" attributeName="opacity"></animate>
  </rect>
</g><g transform="rotate(343.6363636363636 50 50)">
  <rect fill="#2d2627" height="10" width="4" ry="2.4" rx="2" y="28" x="48">
    <animate repeatCount="indefinite" begin="0s" dur="1.5625s" keyTimes="0;1" values="1;0" attributeName="opacity"></animate>
  </rect>
</g><g></g></g><!-- [ldio] generated by https://loading.io --></svg>